<?xml version="1.0" encoding="utf-8" standalone="no"?>
<!DOCTYPE svg PUBLIC "-//W3C//DTD SVG 1.1//EN"
  "http://www.w3.org/Graphics/SVG/1.1/DTD/svg11.dtd">
<!-- Created with matplotlib (https://matplotlib.org/) -->
<svg height="340.56pt" version="1.1" viewBox="0 0 349.2 340.56" width="349.2pt" xmlns="http://www.w3.org/2000/svg" xmlns:xlink="http://www.w3.org/1999/xlink">
 <defs>
  <style type="text/css">
*{stroke-linecap:butt;stroke-linejoin:round;}
  </style>
 </defs>
 <g id="figure_1">
  <g id="patch_1">
   <path d="M 0 340.56 
L 349.2 340.56 
L 349.2 0 
L 0 0 
z
" style="fill:#ffffff;"/>
  </g>
  <g id="axes_1">
   <g id="PathCollection_1">
    <path clip-path="url(#p91b37f600d)" d="M 233.309889 21.543128 
L 231.628566 22.18214 
L 229.622241 20.699862 
L 227.75616 19.36803 
L 229.660913 20.05252 
L 231.556855 20.761049 
L 233.443683 21.493505 
L 233.309889 21.543128 
" style="fill:#ffffff;stroke:#ffffff;stroke-width:5;"/>
    <path clip-path="url(#p91b37f600d)" d="M 324.794936 121.607886 
L 322.399346 121.378905 
L 319.99092 121.152531 
L 317.569829 120.92978 
L 315.136063 120.711481 
L 312.689452 120.498304 
L 310.229672 120.290787 
L 307.756264 120.089358 
L 305.268643 119.894354 
L 302.766108 119.706033 
L 300.24785 119.524589 
L 297.712967 119.350163 
L 295.160465 119.182848 
L 292.589271 119.022702 
L 289.998237 118.869748 
L 289.998237 118.869748 
L 289.575478 116.621013 
L 289.121722 114.376954 
L 288.636887 112.137958 
L 288.12089 109.904414 
L 287.573652 107.676716 
L 286.995093 105.455259 
L 286.385135 103.240444 
L 285.743702 101.032674 
L 285.070716 98.832354 
L 284.366104 96.639896 
L 283.629791 94.455713 
L 282.861705 92.280224 
L 282.061775 90.113851 
L 281.229931 87.957021 
L 280.366105 85.810163 
L 279.470231 83.673714 
L 278.542243 81.548112 
L 277.582077 79.433803 
L 276.589673 77.331236 
L 275.56497 75.240864 
L 274.507911 73.163147 
L 273.418439 71.098551 
L 272.296502 69.047543 
L 271.142047 67.010601 
L 269.955026 64.988206 
L 268.735393 62.980844 
L 267.483103 60.989009 
L 266.198117 59.013201 
L 264.880396 57.053924 
L 263.529906 55.111692 
L 262.146615 53.187022 
L 260.730496 51.280441 
L 259.281524 49.392482 
L 257.79968 47.523684 
L 256.284947 45.674594 
L 254.737314 43.845768 
L 253.156773 42.037767 
L 251.543324 40.251163 
L 249.896968 38.486533 
L 248.217715 36.744464 
L 246.505579 35.025551 
L 244.76058 33.330397 
L 242.982744 31.659615 
L 241.172106 30.013825 
L 239.328706 28.393658 
L 237.452592 26.799753 
L 235.543819 25.232757 
L 233.602453 23.693331 
L 231.628566 22.18214 
L 231.628566 22.18214 
L 233.309889 21.543128 
L 233.443683 21.493505 
L 235.971628 22.518289 
L 238.481735 23.586019 
L 240.973275 24.696387 
L 243.445523 25.849068 
L 245.897761 27.043729 
L 248.329276 28.280022 
L 250.739362 29.557587 
L 253.127317 30.876053 
L 255.492449 32.235037 
L 257.834069 33.634145 
L 260.151497 35.072968 
L 262.444059 36.55109 
L 264.711089 38.068081 
L 266.951928 39.623499 
L 269.165925 41.216892 
L 271.352436 42.847798 
L 273.510826 44.515743 
L 275.640468 46.220241 
L 277.740741 47.960797 
L 279.811037 49.736905 
L 281.850753 51.54805 
L 283.859296 53.393704 
L 285.836083 55.273331 
L 287.780539 57.186386 
L 289.692099 59.132311 
L 291.570207 61.110541 
L 293.414317 63.120502 
L 295.223894 65.161609 
L 296.998412 67.233269 
L 298.737354 69.334879 
L 300.440215 71.465829 
L 302.1065 73.6255 
L 303.735726 75.813264 
L 305.327418 78.028484 
L 306.881114 80.270518 
L 308.396362 82.538713 
L 309.872722 84.83241 
L 311.309765 87.150943 
L 312.707073 89.493637 
L 314.064239 91.859812 
L 315.380871 94.24878 
L 316.656584 96.659846 
L 317.891008 99.092311 
L 319.083784 101.545466 
L 320.234566 104.018599 
L 321.343019 106.510991 
L 322.40882 109.021918 
L 323.431661 111.550649 
L 324.411244 114.09645 
L 325.347283 116.658581 
L 326.239508 119.236297 
L 327.087658 121.828849 
L 324.794936 121.607886 
" style="fill:#ffffff;stroke:#ffffff;stroke-width:5;"/>
    <path clip-path="url(#p91b37f600d)" d="M 124.101016 321.496489 
L 126.594243 321.592865 
L 129.080194 321.646373 
L 131.558381 321.657492 
L 134.028328 321.626698 
L 136.489575 321.554466 
L 138.941671 321.441266 
L 141.384181 321.28757 
L 143.816678 321.093844 
L 146.238749 320.860553 
L 148.649988 320.588159 
L 151.050004 320.277121 
L 153.438413 319.927894 
L 155.814842 319.540934 
L 158.178927 319.116688 
L 160.530314 318.655606 
L 162.868656 318.15813 
L 165.193615 317.624703 
L 167.504862 317.055761 
L 169.802076 316.451739 
L 172.084942 315.81307 
L 174.353153 315.14018 
L 176.60641 314.433497 
L 178.84442 313.693441 
L 181.066897 312.920431 
L 183.273559 312.114884 
L 185.464134 311.277213 
L 187.638353 310.407827 
L 189.795954 309.507133 
L 191.93668 308.575535 
L 194.060279 307.613434 
L 196.166504 306.621228 
L 198.255113 305.599312 
L 200.325871 304.548079 
L 202.378543 303.467918 
L 204.412903 302.359217 
L 206.428727 301.22236 
L 208.425794 300.057728 
L 210.40389 298.865701 
L 212.362802 297.646657 
L 214.302322 296.400968 
L 216.222246 295.129009 
L 218.122373 293.831147 
L 220.002504 292.507752 
L 221.862446 291.159188 
L 223.702007 289.785818 
L 225.520999 288.388004 
L 227.603916 289.954239 
L 229.678588 291.499827 
L 231.745926 293.025482 
L 233.806772 294.531887 
L 235.861889 296.019691 
L 237.91195 297.489511 
L 239.957529 298.941931 
L 241.999087 300.377505 
L 244.036954 301.79676 
L 246.071318 303.200198 
L 248.102196 304.588305 
L 250.129421 305.961556 
L 252.152607 307.320428 
L 254.171125 308.665409 
L 254.512244 308.894694 
L 252.121818 310.245595 
L 249.708562 311.555277 
L 247.273187 312.823355 
L 244.81641 314.049454 
L 242.338955 315.233213 
L 239.841551 316.374285 
L 237.324934 317.472332 
L 234.789844 318.527033 
L 232.237029 319.538075 
L 229.66724 320.505161 
L 227.081234 321.428007 
L 224.479773 322.306341 
L 221.863622 323.139903 
L 219.233553 323.928449 
L 216.590339 324.671747 
L 213.934759 325.369576 
L 211.267595 326.021733 
L 208.589633 326.628025 
L 205.901661 327.188273 
L 203.204471 327.702312 
L 200.498857 328.169991 
L 197.785616 328.591172 
L 195.065547 328.965732 
L 192.339451 329.293559 
L 189.60813 329.574557 
L 186.87239 329.808645 
L 184.133036 329.995751 
L 181.390874 330.135823 
L 178.646712 330.228817 
L 175.901359 330.274708 
L 173.155623 330.27348 
L 170.410311 330.225136 
L 167.666234 330.129688 
L 164.924199 329.987166 
L 162.185013 329.797611 
L 159.449483 329.561078 
L 156.718415 329.277638 
L 153.992613 328.947374 
L 151.272879 328.570383 
L 148.560016 328.146777 
L 145.854821 327.676679 
L 143.158091 327.160229 
L 140.470621 326.597579 
L 137.793202 325.988894 
L 135.126622 325.334353 
L 132.471667 324.63415 
L 129.829119 323.88849 
L 127.199755 323.097593 
L 124.584351 322.261692 
L 121.983676 321.381034 
L 124.101016 321.496489 
" style="fill:#ffffff;stroke:#ffffff;stroke-width:5;"/>
    <path clip-path="url(#p91b37f600d)" d="M 229.622241 20.699862 
L 231.628566 22.18214 
L 229.958384 22.846761 
L 228.299236 23.536539 
L 226.651018 24.251031 
L 225.013633 24.989812 
L 223.386988 25.752467 
L 221.770992 26.538592 
L 220.165563 27.347797 
L 218.570619 28.179701 
L 216.986085 29.033932 
L 215.411889 29.910132 
L 213.847964 30.807946 
L 212.294245 31.727034 
L 210.750673 32.667061 
L 209.217191 33.627699 
L 207.693749 34.608631 
L 206.180296 35.609545 
L 204.676788 36.630136 
L 203.183183 37.670106 
L 201.699442 38.729163 
L 200.225531 39.807021 
L 198.761417 40.903401 
L 197.307071 42.018026 
L 195.862468 43.150628 
L 194.427585 44.300942 
L 193.0024 45.468708 
L 191.586898 46.653669 
L 190.181063 47.855576 
L 188.784882 49.07418 
L 187.398347 50.309238 
L 186.02145 51.560511 
L 184.654186 52.827762 
L 183.296553 54.110759 
L 181.94855 55.409271 
L 180.61018 56.723073 
L 179.281447 58.051941 
L 177.962356 59.395654 
L 176.652917 60.753994 
L 175.353138 62.126746 
L 174.063032 63.513695 
L 172.782614 64.914632 
L 171.511897 66.329348 
L 170.2509 67.757636 
L 168.999642 69.199291 
L 167.758143 70.654112 
L 166.526425 72.121897 
L 165.304513 73.602447 
L 164.092431 75.095566 
L 162.890206 76.601057 
L 161.697866 78.118726 
L 160.515441 79.64838 
L 159.342961 81.189828 
L 158.180459 82.742881 
L 157.027968 84.307349 
L 155.885521 85.883045 
L 154.753156 87.469782 
L 153.630909 89.067376 
L 152.518818 90.675642 
L 151.416922 92.294397 
L 150.325261 93.923459 
L 149.243877 95.562647 
L 148.172811 97.211779 
L 147.112107 98.870678 
L 146.061809 100.539164 
L 145.021963 102.217059 
L 143.992613 103.904185 
L 142.973807 105.600368 
L 139.824252 104.045403 
L 136.77551 102.363339 
L 133.832531 100.557648 
L 130.999245 98.633618 
L 128.278587 96.59813 
L 125.672557 94.459377 
L 123.182307 92.226538 
L 120.808238 89.909446 
L 118.55011 87.518273 
L 116.407143 85.063239 
L 114.378114 82.554373 
L 112.461451 80.001311 
L 110.655306 77.41315 
L 108.957626 74.798341 
L 107.366215 72.16462 
L 105.878778 69.518978 
L 104.492972 66.867649 
L 103.206439 64.216124 
L 102.016841 61.569178 
L 100.921888 58.930908 
L 99.919363 56.304778 
L 99.007146 53.693665 
L 98.183232 51.099911 
L 97.44575 48.525373 
L 96.792984 45.971472 
L 96.223381 43.43924 
L 95.735569 40.929362 
L 95.328373 38.44222 
L 95.000823 35.977929 
L 94.752172 33.536375 
L 94.619363 31.704758 
L 97.020508 30.346364 
L 99.444717 29.029572 
L 101.891269 27.754773 
L 104.359437 26.522345 
L 106.848487 25.332656 
L 109.357679 24.186059 
L 111.886268 23.082895 
L 114.4335 22.023491 
L 116.99862 21.008164 
L 119.580865 20.037214 
L 122.179466 19.11093 
L 124.793652 18.229588 
L 127.422645 17.39345 
L 130.065663 16.602764 
L 132.721921 15.857765 
L 135.390629 15.158676 
L 138.070994 14.505703 
L 140.762219 13.89904 
L 143.463504 13.338869 
L 146.174045 12.825355 
L 148.893037 12.358652 
L 151.619672 11.938898 
L 154.353139 11.566218 
L 157.092625 11.240722 
L 159.837315 10.962508 
L 162.586395 10.731658 
L 165.339046 10.548241 
L 168.094451 10.412311 
L 170.851789 10.323909 
L 173.610242 10.283061 
L 176.368989 10.289779 
L 179.12721 10.344062 
L 181.884085 10.445892 
L 184.638795 10.59524 
L 187.39052 10.792061 
L 190.138443 11.036297 
L 192.881746 11.327876 
L 195.619614 11.66671 
L 198.351233 12.052699 
L 201.075791 12.485727 
L 203.792478 12.965667 
L 206.500486 13.492376 
L 209.199011 14.065697 
L 211.887249 14.685459 
L 214.564402 15.351479 
L 217.229674 16.063558 
L 219.882272 16.821485 
L 222.521408 17.625034 
L 225.146298 18.473967 
L 227.75616 19.36803 
L 229.622241 20.699862 
" style="fill:#ffffff;stroke:#ffffff;stroke-width:5;"/>
    <path clip-path="url(#p91b37f600d)" d="M 23.871176 217.179394 
L 25.787216 215.674341 
L 27.77634 214.205413 
L 29.839221 212.773285 
L 31.976506 211.37896 
L 34.188779 210.023794 
L 36.476525 208.709512 
L 38.840092 207.438236 
L 41.279643 206.212504 
L 43.795118 205.035295 
L 46.386183 203.910058 
L 49.052182 202.84073 
L 51.792092 201.831761 
L 54.60447 200.888127 
L 57.487411 200.015341 
L 60.438505 199.219452 
L 63.454801 198.507031 
L 66.53278 197.885131 
L 69.668346 197.361237 
L 72.856822 196.943172 
L 76.092977 196.638979 
L 79.371062 196.456757 
L 82.684885 196.404456 
L 86.027897 196.489637 
L 89.393312 196.719189 
L 92.774239 197.099023 
L 96.16383 197.633764 
L 99.555435 198.326457 
L 102.942741 199.178311 
L 106.319907 200.188521 
L 106.319907 200.188521 
L 105.932721 202.123441 
L 105.55962 204.058614 
L 105.200694 205.99388 
L 104.856034 207.929079 
L 104.52573 209.864049 
L 104.209876 211.798632 
L 103.908567 213.732666 
L 103.621899 215.665992 
L 103.349968 217.598448 
L 103.092874 219.529876 
L 102.850717 221.460114 
L 102.6236 223.389002 
L 102.411625 225.31638 
L 102.214899 227.242089 
L 102.033528 229.165966 
L 101.867623 231.087852 
L 101.717293 233.007586 
L 101.582652 234.925007 
L 101.463816 236.839955 
L 101.360901 238.752268 
L 101.274027 240.661785 
L 101.203317 242.568344 
L 101.148894 244.471784 
L 101.110886 246.371942 
L 101.089422 248.268657 
L 101.084635 250.161764 
L 101.096659 252.051101 
L 101.125634 253.936505 
L 101.171699 255.81781 
L 101.235 257.694853 
L 101.315684 259.567468 
L 101.413903 261.435489 
L 101.52981 263.29875 
L 101.663565 265.157083 
L 101.81533 267.01032 
L 101.985272 268.858292 
L 102.17356 270.700829 
L 102.380371 272.53776 
L 102.605882 274.368912 
L 102.85028 276.194113 
L 103.113753 278.013187 
L 103.396495 279.825959 
L 103.698705 281.63225 
L 104.02059 283.431882 
L 104.36236 285.224674 
L 104.724233 287.010443 
L 105.10643 288.789004 
L 105.509183 290.560169 
L 105.932728 292.32375 
L 106.377308 294.079555 
L 106.843175 295.827389 
L 107.330587 297.567054 
L 107.839811 299.298352 
L 108.371122 301.021077 
L 108.924804 302.735022 
L 109.501149 304.439977 
L 110.10046 306.135727 
L 110.723048 307.822051 
L 111.369236 309.498727 
L 112.039357 311.165526 
L 112.733754 312.822212 
L 113.452783 314.468547 
L 114.196812 316.104284 
L 114.96622 317.729171 
L 115.590005 319.000612 
L 113.065166 317.973819 
L 110.558185 316.904166 
L 108.069789 315.791962 
L 105.6007 314.63753 
L 103.151634 313.441207 
L 100.723303 312.203337 
L 98.316411 310.924282 
L 95.931656 309.604412 
L 93.569731 308.24411 
L 91.231321 306.84377 
L 88.917104 305.4038 
L 86.627753 303.924617 
L 84.363931 302.406651 
L 82.126295 300.850341 
L 79.915496 299.25614 
L 77.732173 297.62451 
L 75.576962 295.955924 
L 73.450487 294.250868 
L 71.353366 292.509835 
L 69.286207 290.733331 
L 67.24961 288.921872 
L 65.244166 287.075983 
L 63.270457 285.196199 
L 61.329056 283.283067 
L 59.420526 281.337142 
L 57.545421 279.358988 
L 55.704285 277.349179 
L 53.897653 275.308298 
L 52.126049 273.236939 
L 50.389986 271.135701 
L 48.689969 269.005195 
L 47.026492 266.84604 
L 45.400036 264.65886 
L 43.811074 262.444292 
L 42.260066 260.202978 
L 40.747464 257.935568 
L 39.273706 255.642721 
L 37.839219 253.325101 
L 36.444421 250.983382 
L 35.089715 248.618243 
L 33.775494 246.230369 
L 32.502141 243.820456 
L 31.270025 241.3892 
L 30.079504 238.937309 
L 28.930921 236.465494 
L 27.824613 233.974471 
L 26.760898 231.464964 
L 25.740086 228.937702 
L 24.762473 226.393417 
L 23.828343 223.832848 
L 22.937967 221.256738 
L 22.091603 218.665834 
L 23.871176 217.179394 
" style="fill:#ffffff;stroke:#ffffff;stroke-width:5;"/>
    <path clip-path="url(#p91b37f600d)" d="M 231.628566 22.18214 
L 233.602453 23.693331 
L 235.543819 25.232757 
L 237.452592 26.799753 
L 239.328706 28.393658 
L 241.172106 30.013825 
L 242.982744 31.659615 
L 244.76058 33.330397 
L 246.505579 35.025551 
L 248.217715 36.744464 
L 249.896968 38.486533 
L 251.543324 40.251163 
L 253.156773 42.037767 
L 254.737314 43.845768 
L 256.284947 45.674594 
L 257.79968 47.523684 
L 259.281524 49.392482 
L 260.730496 51.280441 
L 262.146615 53.187022 
L 263.529906 55.111692 
L 264.880396 57.053924 
L 266.198117 59.013201 
L 267.483103 60.989009 
L 268.735393 62.980844 
L 269.955026 64.988206 
L 271.142047 67.010601 
L 272.296502 69.047543 
L 273.418439 71.098551 
L 274.507911 73.163147 
L 275.56497 75.240864 
L 276.589673 77.331236 
L 277.582077 79.433803 
L 278.542243 81.548112 
L 279.470231 83.673714 
L 280.366105 85.810163 
L 281.229931 87.957021 
L 282.061775 90.113851 
L 282.861705 92.280224 
L 283.629791 94.455713 
L 284.366104 96.639896 
L 285.070716 98.832354 
L 285.743702 101.032674 
L 286.385135 103.240444 
L 286.995093 105.455259 
L 287.573652 107.676716 
L 288.12089 109.904414 
L 288.636887 112.137958 
L 289.121722 114.376954 
L 289.575478 116.621013 
L 289.998237 118.869748 
L 287.38615 118.723981 
L 284.751739 118.585371 
L 282.09368 118.453866 
L 279.410603 118.329391 
L 276.701101 118.211848 
L 273.963739 118.101118 
L 271.19706 117.99706 
L 268.399592 117.899504 
L 265.569864 117.808249 
L 262.70641 117.723064 
L 259.807787 117.643674 
L 256.872581 117.569758 
L 253.899432 117.50094 
L 250.887039 117.436779 
L 247.834188 117.376758 
L 244.739767 117.320269 
L 241.602793 117.266601 
L 238.422432 117.214918 
L 235.198032 117.164242 
L 231.929152 117.113431 
L 228.615593 117.06115 
L 225.257437 117.005845 
L 221.855084 116.94571 
L 218.409293 116.878653 
L 214.921226 116.802256 
L 211.392487 116.713739 
L 207.825175 116.609912 
L 204.221921 116.487137 
L 200.585932 116.341283 
L 196.921033 116.167687 
L 193.231696 115.961122 
L 189.523065 115.715774 
L 185.800976 115.425232 
L 182.071946 115.082503 
L 178.343167 114.68005 
L 174.622456 114.209865 
L 170.9182 113.663585 
L 167.239258 113.032652 
L 163.594848 112.308524 
L 159.994397 111.482924 
L 156.447373 110.548142 
L 152.963101 109.497349 
L 149.550562 108.324916 
L 146.218213 107.026717 
L 142.973807 105.600368 
L 142.973807 105.600368 
L 143.992613 103.904185 
L 145.021963 102.217059 
L 146.061809 100.539164 
L 147.112107 98.870678 
L 148.172811 97.211779 
L 149.243877 95.562647 
L 150.325261 93.923459 
L 151.416922 92.294397 
L 152.518818 90.675642 
L 153.630909 89.067376 
L 154.753156 87.469782 
L 155.885521 85.883045 
L 157.027968 84.307349 
L 158.180459 82.742881 
L 159.342961 81.189828 
L 160.515441 79.64838 
L 161.697866 78.118726 
L 162.890206 76.601057 
L 164.092431 75.095566 
L 165.304513 73.602447 
L 166.526425 72.121897 
L 167.758143 70.654112 
L 168.999642 69.199291 
L 170.2509 67.757636 
L 171.511897 66.329348 
L 172.782614 64.914632 
L 174.063032 63.513695 
L 175.353138 62.126746 
L 176.652917 60.753994 
L 177.962356 59.395654 
L 179.281447 58.051941 
L 180.61018 56.723073 
L 181.94855 55.409271 
L 183.296553 54.110759 
L 184.654186 52.827762 
L 186.02145 51.560511 
L 187.398347 50.309238 
L 188.784882 49.07418 
L 190.181063 47.855576 
L 191.586898 46.653669 
L 193.0024 45.468708 
L 194.427585 44.300942 
L 195.862468 43.150628 
L 197.307071 42.018026 
L 198.761417 40.903401 
L 200.225531 39.807021 
L 201.699442 38.729163 
L 203.183183 37.670106 
L 204.676788 36.630136 
L 206.180296 35.609545 
L 207.693749 34.608631 
L 209.217191 33.627699 
L 210.750673 32.667061 
L 212.294245 31.727034 
L 213.847964 30.807946 
L 215.411889 29.910132 
L 216.986085 29.033932 
L 218.570619 28.179701 
L 220.165563 27.347797 
L 221.770992 26.538592 
L 223.386988 25.752467 
L 225.013633 24.989812 
L 226.651018 24.251031 
L 228.299236 23.536539 
L 229.958384 22.846761 
L 231.628566 22.18214 
L 231.628566 22.18214 
" style="fill:#ffffff;stroke:#ffffff;stroke-width:5;"/>
    <path clip-path="url(#p91b37f600d)" d="M 114.96622 317.729171 
L 114.196812 316.104284 
L 113.452783 314.468547 
L 112.733754 312.822212 
L 112.039357 311.165526 
L 111.369236 309.498727 
L 110.723048 307.822051 
L 110.10046 306.135727 
L 109.501149 304.439977 
L 108.924804 302.735022 
L 108.371122 301.021077 
L 107.839811 299.298352 
L 107.330587 297.567054 
L 106.843175 295.827389 
L 106.377308 294.079555 
L 105.932728 292.32375 
L 105.509183 290.560169 
L 105.10643 288.789004 
L 104.724233 287.010443 
L 104.36236 285.224674 
L 104.02059 283.431882 
L 103.698705 281.63225 
L 103.396495 279.825959 
L 103.113753 278.013187 
L 102.85028 276.194113 
L 102.605882 274.368912 
L 102.380371 272.53776 
L 102.17356 270.700829 
L 101.985272 268.858292 
L 101.81533 267.01032 
L 101.663565 265.157083 
L 101.52981 263.29875 
L 101.413903 261.435489 
L 101.315684 259.567468 
L 101.235 257.694853 
L 101.171699 255.81781 
L 101.125634 253.936505 
L 101.096659 252.051101 
L 101.084635 250.161764 
L 101.089422 248.268657 
L 101.110886 246.371942 
L 101.148894 244.471784 
L 101.203317 242.568344 
L 101.274027 240.661785 
L 101.360901 238.752268 
L 101.463816 236.839955 
L 101.582652 234.925007 
L 101.717293 233.007586 
L 101.867623 231.087852 
L 102.033528 229.165966 
L 102.214899 227.242089 
L 102.411625 225.31638 
L 102.6236 223.389002 
L 102.850717 221.460114 
L 103.092874 219.529876 
L 103.349968 217.598448 
L 103.621899 215.665992 
L 103.908567 213.732666 
L 104.209876 211.798632 
L 104.52573 209.864049 
L 104.856034 207.929079 
L 105.200694 205.99388 
L 105.55962 204.058614 
L 105.932721 202.123441 
L 106.319907 200.188521 
L 109.681652 201.354175 
L 113.023328 202.67027 
L 116.340937 204.129834 
L 119.631126 205.724146 
L 122.891144 207.44303 
L 126.118784 209.275209 
L 129.312303 211.208662 
L 132.47035 213.230991 
L 135.591896 215.329748 
L 138.676165 217.49272 
L 141.722588 219.708164 
L 144.730762 221.964986 
L 147.700421 224.252865 
L 150.63142 226.562336 
L 153.52372 228.884828 
L 156.377386 231.212673 
L 159.19258 233.539092 
L 161.969562 235.858154 
L 164.708689 238.164737 
L 167.410412 240.454466 
L 170.075277 242.723653 
L 172.70392 244.96924 
L 175.297064 247.188731 
L 177.855515 249.380137 
L 180.380153 251.541917 
L 182.871931 253.672923 
L 185.331864 255.772354 
L 187.761022 257.839707 
L 190.160528 259.874737 
L 192.531542 261.877421 
L 194.875262 263.847922 
L 197.192913 265.78656 
L 199.485741 267.693785 
L 201.755008 269.570154 
L 204.001985 271.416309 
L 206.227945 273.23296 
L 208.434159 275.020867 
L 210.621893 276.78083 
L 212.792399 278.513671 
L 214.946911 280.220227 
L 217.086644 281.901341 
L 219.212783 283.557853 
L 221.326484 285.190595 
L 223.428864 286.80038 
L 225.520999 288.388004 
L 225.520999 288.388004 
L 223.702007 289.785818 
L 221.862446 291.159188 
L 220.002504 292.507752 
L 218.122373 293.831147 
L 216.222246 295.129009 
L 214.302322 296.400968 
L 212.362802 297.646657 
L 210.40389 298.865701 
L 208.425794 300.057728 
L 206.428727 301.22236 
L 204.412903 302.359217 
L 202.378543 303.467918 
L 200.325871 304.548079 
L 198.255113 305.599312 
L 196.166504 306.621228 
L 194.060279 307.613434 
L 191.93668 308.575535 
L 189.795954 309.507133 
L 187.638353 310.407827 
L 185.464134 311.277213 
L 183.273559 312.114884 
L 181.066897 312.920431 
L 178.84442 313.693441 
L 176.60641 314.433497 
L 174.353153 315.14018 
L 172.084942 315.81307 
L 169.802076 316.451739 
L 167.504862 317.055761 
L 165.193615 317.624703 
L 162.868656 318.15813 
L 160.530314 318.655606 
L 158.178927 319.116688 
L 155.814842 319.540934 
L 153.438413 319.927894 
L 151.050004 320.277121 
L 148.649988 320.588159 
L 146.238749 320.860553 
L 143.816678 321.093844 
L 141.384181 321.28757 
L 138.941671 321.441266 
L 136.489575 321.554466 
L 134.028328 321.626698 
L 131.558381 321.657492 
L 129.080194 321.646373 
L 126.594243 321.592865 
L 124.101016 321.496489 
L 121.983676 321.381034 
L 119.841245 320.617882 
L 117.709877 319.824354 
L 115.590005 319.000612 
L 114.96622 317.729171 
" style="fill:#ffffff;stroke:#ffffff;stroke-width:5;"/>
    <path clip-path="url(#p91b37f600d)" d="M 324.794936 121.607886 
L 307.756264 120.089358 
L 295.160465 119.182848 
L 282.09368 118.453866 
L 268.399592 117.899504 
L 250.887039 117.436779 
L 200.585932 116.341283 
L 189.523065 115.715774 
L 182.071946 115.082503 
L 174.622456 114.209865 
L 167.239258 113.032652 
L 159.994397 111.482924 
L 156.447373 110.548142 
L 152.963101 109.497349 
L 149.550562 108.324916 
L 146.218213 107.026717 
L 142.973807 105.600368 
L 139.824252 104.045403 
L 136.77551 102.363339 
L 133.832531 100.557648 
L 130.999245 98.633618 
L 128.278587 96.59813 
L 125.672557 94.459377 
L 123.182307 92.226538 
L 120.808238 89.909446 
L 118.55011 87.518273 
L 116.407143 85.063239 
L 114.378114 82.554373 
L 110.655306 77.41315 
L 107.366215 72.16462 
L 104.492972 66.867649 
L 102.016841 61.569178 
L 99.919363 56.304778 
L 98.183232 51.099911 
L 96.792984 45.971472 
L 95.735569 40.929362 
L 95.000823 35.977929 
L 94.619363 31.704758 
L 99.473887 29.014055 
L 104.418815 26.493348 
L 109.448197 24.145669 
L 114.555981 21.973844 
L 119.736021 19.980486 
L 124.982082 18.167995 
L 130.287851 16.53855 
L 135.646945 15.094113 
L 141.052913 13.836422 
L 146.499251 12.766991 
L 151.979405 11.887107 
L 157.48678 11.197827 
L 163.014748 10.699983 
L 168.556658 10.394172 
L 174.105839 10.280763 
L 179.655616 10.359893 
L 185.199309 10.631465 
L 190.730247 11.095154 
L 196.241774 11.750401 
L 201.727258 12.596419 
L 207.180098 13.632187 
L 212.593732 14.856462 
L 217.961646 16.267768 
L 223.277379 17.864408 
L 228.534536 19.64446 
L 233.726789 21.605783 
L 238.847891 23.746016 
L 243.891679 26.062584 
L 248.852083 28.552698 
L 253.723135 31.213363 
L 258.498972 34.041377 
L 263.173848 37.033336 
L 267.742136 40.18564 
L 272.19834 43.494496 
L 276.537097 46.955922 
L 280.753186 50.565752 
L 284.841533 54.319643 
L 288.797219 58.213078 
L 292.615484 62.24137 
L 296.291732 66.399673 
L 299.82154 70.682982 
L 303.20066 75.086143 
L 306.425025 79.603858 
L 309.490757 84.23069 
L 312.394165 88.961071 
L 315.131755 93.789309 
L 317.700234 98.709593 
L 320.09651 103.716003 
L 322.3177 108.802515 
L 324.36113 113.963006 
L 326.224343 119.191268 
L 327.087658 121.828849 
L 324.794936 121.607886 
L 324.794936 121.607886 
" style="fill:none;stroke:#000000;stroke-width:5;"/>
    <path clip-path="url(#p91b37f600d)" d="M 23.871176 217.179394 
L 27.77634 214.205413 
L 31.976506 211.37896 
L 36.476525 208.709512 
L 41.279643 206.212504 
L 46.386183 203.910058 
L 51.792092 201.831761 
L 57.487411 200.015341 
L 63.454801 198.507031 
L 69.668346 197.361237 
L 72.856822 196.943172 
L 76.092977 196.638979 
L 79.371062 196.456757 
L 82.684885 196.404456 
L 86.027897 196.489637 
L 89.393312 196.719189 
L 92.774239 197.099023 
L 96.16383 197.633764 
L 99.555435 198.326457 
L 102.942741 199.178311 
L 106.319907 200.188521 
L 109.681652 201.354175 
L 113.023328 202.67027 
L 116.340937 204.129834 
L 119.631126 205.724146 
L 122.891144 207.44303 
L 129.312303 211.208662 
L 135.591896 215.329748 
L 141.722588 219.708164 
L 147.700421 224.252865 
L 156.377386 231.212673 
L 167.410412 240.454466 
L 201.755008 269.570154 
L 212.792399 278.513671 
L 223.428864 286.80038 
L 231.745926 293.025482 
L 239.957529 298.941931 
L 250.129421 305.961556 
L 254.512244 308.894694 
L 249.656571 311.582905 
L 244.710585 314.10109 
L 239.680236 316.446217 
L 234.571576 318.615464 
L 229.390754 320.606223 
L 224.144004 322.416096 
L 218.837638 324.042907 
L 213.478041 325.484697 
L 208.071663 326.739732 
L 202.62501 327.806502 
L 197.144634 328.683723 
L 191.637131 329.37034 
L 186.109127 329.865526 
L 180.567274 330.168685 
L 175.018242 330.279453 
L 169.468706 330.197697 
L 163.925344 329.923514 
L 158.394827 329.457236 
L 152.883809 328.799422 
L 147.398922 327.950864 
L 141.946766 326.912584 
L 136.533901 325.68583 
L 131.16684 324.27208 
L 125.852041 322.673033 
L 120.5959 320.890614 
L 115.404741 318.926969 
L 110.284811 316.784459 
L 105.24227 314.465663 
L 100.283186 311.97337 
L 95.413526 309.310581 
L 90.63915 306.480498 
L 85.965803 303.486528 
L 81.399107 300.332273 
L 76.944559 297.021528 
L 72.607517 293.558277 
L 68.393202 289.946687 
L 64.306683 286.191105 
L 60.352878 282.296049 
L 56.536545 278.266206 
L 52.862276 274.106425 
L 49.334491 269.821711 
L 45.957436 265.417221 
L 42.735175 260.898253 
L 39.671584 256.270247 
L 36.77035 251.538769 
L 34.034964 246.709515 
L 31.468718 241.788294 
L 29.074699 236.781029 
L 26.855788 231.693744 
L 24.814655 226.53256 
L 22.953757 221.30369 
L 22.091603 218.665834 
L 23.871176 217.179394 
L 23.871176 217.179394 
" style="fill:none;stroke:#000000;stroke-width:5;"/>
    <path clip-path="url(#p91b37f600d)" d="M 323.286195 227.562185 
L 321.967622 227.104377 
L 320.638409 226.641622 
L 319.298645 226.17397 
L 317.948421 225.701474 
L 316.587829 225.224185 
L 315.216962 224.742153 
L 313.835916 224.255429 
L 312.444784 223.764065 
L 311.043665 223.268108 
L 309.632655 222.767611 
L 308.211853 222.262622 
L 306.781358 221.753192 
L 305.341271 221.239369 
L 303.891694 220.721204 
L 302.432729 220.198745 
L 300.964479 219.672043 
L 299.487049 219.141145 
L 298.000543 218.606102 
L 296.505068 218.066963 
L 295.000731 217.523776 
L 293.487638 216.976591 
L 291.965899 216.425456 
L 290.435622 215.870422 
L 288.896919 215.311536 
L 287.349899 214.748848 
L 285.794675 214.182408 
L 284.231358 213.612264 
L 282.660061 213.038465 
L 281.080899 212.461061 
L 281.869303 210.34241 
L 282.631009 208.214032 
L 283.365905 206.076249 
L 284.073877 203.929384 
L 284.754814 201.773757 
L 285.408607 199.609691 
L 286.035145 197.43751 
L 286.63432 195.257536 
L 287.206024 193.070094 
L 287.75015 190.875508 
L 288.26659 188.674102 
L 288.75524 186.466204 
L 289.215995 184.252139 
L 289.648751 182.032235 
L 290.053404 179.806821 
L 290.429852 177.576225 
L 290.777993 175.340777 
L 291.097726 173.100808 
L 291.388951 170.856652 
L 291.651567 168.60864 
L 291.885476 166.357108 
L 292.09058 164.102391 
L 292.26678 161.844827 
L 292.413981 159.584752 
L 292.532085 157.322508 
L 292.620997 155.058435 
L 292.680623 152.792877 
L 292.710868 150.526177 
L 292.711639 148.258682 
L 292.682842 145.990738 
L 292.624386 143.722697 
L 292.53618 141.454909 
L 292.418133 139.187727 
L 292.270154 136.921508 
L 292.092154 134.656607 
L 291.884046 132.393386 
L 291.64574 130.132206 
L 291.37715 127.87343 
L 291.07819 125.617426 
L 290.748774 123.364563 
L 290.388818 121.115212 
L 289.998237 118.869748 
L 292.589271 119.022702 
L 295.160465 119.182848 
L 297.712967 119.350163 
L 300.24785 119.524589 
L 302.766108 119.706033 
L 305.268643 119.894354 
L 307.756264 120.089358 
L 310.229672 120.290787 
L 312.689452 120.498304 
L 315.136063 120.711481 
L 317.569829 120.92978 
L 319.99092 121.152531 
L 322.399346 121.378905 
L 324.794936 121.607886 
L 327.087658 121.828849 
L 327.903637 124.476127 
L 328.673662 127.137135 
L 329.3975 129.811075 
L 330.074937 132.497146 
L 330.705768 135.194544 
L 331.289804 137.902458 
L 331.826871 140.620078 
L 332.316808 143.346589 
L 332.759466 146.081174 
L 333.154715 148.823013 
L 333.502435 151.571283 
L 333.802522 154.325162 
L 334.054887 157.083823 
L 334.259453 159.84644 
L 334.416159 162.612185 
L 334.524958 165.380228 
L 334.585818 168.14974 
L 334.59872 170.91989 
L 334.563661 173.689849 
L 334.480651 176.458785 
L 334.349715 179.225869 
L 334.170892 181.990272 
L 333.944236 184.751164 
L 333.669814 187.507719 
L 333.347709 190.259109 
L 332.978018 193.004511 
L 332.560851 195.7431 
L 332.096334 198.474056 
L 331.584605 201.196561 
L 331.025818 203.909799 
L 330.420141 206.612955 
L 329.767755 209.305221 
L 329.068855 211.985788 
L 328.323652 214.653853 
L 327.532368 217.308616 
L 326.695241 219.949283 
L 325.812522 222.57506 
L 324.884475 225.185161 
L 323.911378 227.778804 
L 323.286195 227.562185 
" style="fill:#204a87;stroke:#204a87;stroke-width:5;"/>
    <path clip-path="url(#p91b37f600d)" d="M 254.171125 308.665409 
L 252.152607 307.320428 
L 250.129421 305.961556 
L 248.102196 304.588305 
L 246.071318 303.200198 
L 244.036954 301.79676 
L 241.999087 300.377505 
L 239.957529 298.941931 
L 237.91195 297.489511 
L 235.861889 296.019691 
L 233.806772 294.531887 
L 231.745926 293.025482 
L 229.678588 291.499827 
L 227.603916 289.954239 
L 225.520999 288.388004 
L 225.520999 288.388004 
L 227.313239 286.970914 
L 229.084683 285.530254 
L 230.835152 284.066375 
L 232.56447 282.579629 
L 234.272466 281.070363 
L 235.958967 279.538924 
L 237.623807 277.985656 
L 239.266818 276.410904 
L 240.887839 274.815009 
L 242.486706 273.198312 
L 244.063262 271.561151 
L 245.617347 269.903865 
L 247.148808 268.226789 
L 248.657491 266.530259 
L 250.143245 264.814609 
L 251.605918 263.080172 
L 253.045364 261.327279 
L 254.461437 259.556261 
L 255.853992 257.767448 
L 257.222885 255.961169 
L 258.567975 254.137751 
L 259.889124 252.297522 
L 261.186191 250.440808 
L 262.459041 248.567934 
L 263.707538 246.679226 
L 264.931547 244.775008 
L 266.130937 242.855603 
L 267.305575 240.921335 
L 268.455331 238.972526 
L 269.580078 237.009499 
L 270.679686 235.032576 
L 271.75403 233.042078 
L 272.802983 231.038325 
L 273.826423 229.021641 
L 274.824226 226.992344 
L 275.79627 224.950756 
L 276.742434 222.897198 
L 277.662599 220.831989 
L 278.556645 218.75545 
L 279.424455 216.667903 
L 280.265912 214.569666 
L 281.080899 212.461061 
L 281.080899 212.461061 
L 282.660061 213.038465 
L 284.231358 213.612264 
L 285.794675 214.182408 
L 287.349899 214.748848 
L 288.896919 215.311536 
L 290.435622 215.870422 
L 291.965899 216.425456 
L 293.487638 216.976591 
L 295.000731 217.523776 
L 296.505068 218.066963 
L 298.000543 218.606102 
L 299.487049 219.141145 
L 300.964479 219.672043 
L 302.432729 220.198745 
L 303.891694 220.721204 
L 305.341271 221.239369 
L 306.781358 221.753192 
L 308.211853 222.262622 
L 309.632655 222.767611 
L 311.043665 223.268108 
L 312.444784 223.764065 
L 313.835916 224.255429 
L 315.216962 224.742153 
L 316.587829 225.224185 
L 317.948421 225.701474 
L 319.298645 226.17397 
L 320.638409 226.641622 
L 321.967622 227.104377 
L 323.286195 227.562185 
L 323.911378 227.778804 
L 322.912009 230.309559 
L 321.869749 232.822954 
L 320.784898 235.318262 
L 319.657772 237.79476 
L 318.488695 240.251734 
L 317.278005 242.688472 
L 316.026054 245.104269 
L 314.733202 247.498428 
L 313.399825 249.870255 
L 312.026306 252.219065 
L 310.613044 254.544178 
L 309.160448 256.844922 
L 307.668937 259.120632 
L 306.138943 261.37065 
L 304.570908 263.594324 
L 302.965286 265.791012 
L 301.322541 267.960078 
L 299.643148 270.100896 
L 297.927593 272.212845 
L 296.176371 274.295316 
L 294.38999 276.347706 
L 292.568967 278.369421 
L 290.713826 280.359877 
L 288.825106 282.318498 
L 286.903353 284.244718 
L 284.949121 286.13798 
L 282.962977 287.997735 
L 280.945494 289.823447 
L 278.897257 291.614588 
L 276.818857 293.370638 
L 274.710896 295.091092 
L 272.573982 296.77545 
L 270.408735 298.423226 
L 268.21578 300.033943 
L 265.995752 301.607135 
L 263.749293 303.142348 
L 261.477051 304.639138 
L 259.179685 306.097071 
L 256.857859 307.515727 
L 254.512244 308.894694 
L 254.171125 308.665409 
" style="fill:#204a87;stroke:#204a87;stroke-width:5;"/>
    <path clip-path="url(#p91b37f600d)" d="M 94.752172 33.536375 
L 95.000823 35.977929 
L 95.328373 38.44222 
L 95.735569 40.929362 
L 96.223381 43.43924 
L 96.792984 45.971472 
L 97.44575 48.525373 
L 98.183232 51.099911 
L 99.007146 53.693665 
L 99.919363 56.304778 
L 100.921888 58.930908 
L 102.016841 61.569178 
L 103.206439 64.216124 
L 104.492972 66.867649 
L 105.878778 69.518978 
L 107.366215 72.16462 
L 108.957626 74.798341 
L 110.655306 77.41315 
L 112.461451 80.001311 
L 114.378114 82.554373 
L 116.407143 85.063239 
L 118.55011 87.518273 
L 120.808238 89.909446 
L 123.182307 92.226538 
L 125.672557 94.459377 
L 128.278587 96.59813 
L 130.999245 98.633618 
L 133.832531 100.557648 
L 136.77551 102.363339 
L 139.824252 104.045403 
L 142.973807 105.600368 
L 142.973807 105.600368 
L 141.965019 107.306409 
L 140.966883 109.021164 
L 139.97945 110.744459 
L 139.002769 112.476119 
L 138.036891 114.215972 
L 137.081869 115.963844 
L 136.137755 117.719562 
L 135.204602 119.482954 
L 134.282465 121.25385 
L 133.371399 123.032077 
L 132.471459 124.817466 
L 131.582702 126.609846 
L 130.705185 128.409048 
L 129.838965 130.214901 
L 128.9841 132.027238 
L 128.140651 133.845889 
L 127.308676 135.670687 
L 126.488236 137.501463 
L 125.679392 139.33805 
L 124.882207 141.180281 
L 124.096741 143.027988 
L 123.323059 144.881006 
L 122.561224 146.739168 
L 121.8113 148.602308 
L 121.073352 150.47026 
L 120.70889 151.405989 
L 118.951474 150.715114 
L 117.198312 150.025393 
L 115.449536 149.336877 
L 113.705277 148.649613 
L 111.965666 147.963651 
L 110.230832 147.27904 
L 108.500906 146.595827 
L 106.776016 145.914062 
L 105.056293 145.233791 
L 103.341865 144.555062 
L 101.632861 143.877924 
L 99.929409 143.202424 
L 98.231636 142.528608 
L 96.539671 141.856523 
L 94.853639 141.186216 
L 93.173668 140.517733 
L 91.499884 139.85112 
L 89.832413 139.186424 
L 88.171379 138.523689 
L 86.516908 137.86296 
L 84.869124 137.204283 
L 83.228151 136.547702 
L 81.594113 135.893262 
L 79.967132 135.241005 
L 78.347332 134.590977 
L 76.734833 133.94322 
L 75.129759 133.297777 
L 73.53223 132.654692 
L 71.942366 132.014005 
L 70.360288 131.375758 
L 68.786114 130.739994 
L 67.219965 130.106754 
L 65.661958 129.476077 
L 64.112212 128.848004 
L 62.570844 128.222575 
L 61.03797 127.59983 
L 59.513707 126.979806 
L 57.99817 126.362542 
L 56.491475 125.748077 
L 54.993736 125.136447 
L 53.505068 124.52769 
L 52.025582 123.921842 
L 50.555393 123.318938 
L 49.094612 122.719014 
L 47.64335 122.122104 
L 46.201719 121.528242 
L 44.769829 120.937462 
L 43.34779 120.349796 
L 41.93571 119.765276 
L 40.533698 119.183934 
L 39.141862 118.605801 
L 37.760309 118.030905 
L 36.389145 117.459277 
L 35.028477 116.890944 
L 33.678409 116.325934 
L 32.339046 115.764274 
L 31.010491 115.205989 
L 29.692849 114.651104 
L 28.386222 114.099642 
L 27.090712 113.551628 
L 25.806419 113.007081 
L 25.286647 112.786324 
L 26.28524 110.257237 
L 27.326668 107.745485 
L 28.410629 105.251793 
L 29.53681 102.776882 
L 30.704887 100.321466 
L 31.914522 97.886255 
L 33.165365 95.471952 
L 34.457056 93.079253 
L 35.789221 90.708851 
L 37.161476 88.36143 
L 38.573424 86.037667 
L 40.024657 83.738235 
L 41.514757 81.463796 
L 43.043293 79.215007 
L 44.609824 76.99252 
L 46.213896 74.796974 
L 47.855047 72.629004 
L 49.532804 70.489237 
L 51.24668 68.37829 
L 52.996182 66.296773 
L 54.780804 64.245287 
L 56.600031 62.224425 
L 58.453337 60.23477 
L 60.340187 58.276897 
L 62.260036 56.351371 
L 64.21233 54.458749 
L 66.196504 52.599576 
L 68.211986 50.774391 
L 70.258194 48.98372 
L 72.334537 47.22808 
L 74.440414 45.507978 
L 76.575219 43.823912 
L 78.738333 42.176367 
L 80.929134 40.565819 
L 83.146987 38.992733 
L 85.391252 37.457565 
L 87.661282 35.960756 
L 89.95642 34.50274 
L 92.276003 33.083937 
L 94.619363 31.704758 
L 94.752172 33.536375 
" style="fill:#204a87;stroke:#204a87;stroke-width:5;"/>
    <path clip-path="url(#p91b37f600d)" d="M 25.806419 113.007081 
L 27.090712 113.551628 
L 28.386222 114.099642 
L 29.692849 114.651104 
L 31.010491 115.205989 
L 32.339046 115.764274 
L 33.678409 116.325934 
L 35.028477 116.890944 
L 36.389145 117.459277 
L 37.760309 118.030905 
L 39.141862 118.605801 
L 40.533698 119.183934 
L 41.93571 119.765276 
L 43.34779 120.349796 
L 44.769829 120.937462 
L 46.201719 121.528242 
L 47.64335 122.122104 
L 49.094612 122.719014 
L 50.555393 123.318938 
L 52.025582 123.921842 
L 53.505068 124.52769 
L 54.993736 125.136447 
L 56.491475 125.748077 
L 57.99817 126.362542 
L 59.513707 126.979806 
L 61.03797 127.59983 
L 62.570844 128.222575 
L 64.112212 128.848004 
L 65.661958 129.476077 
L 67.219965 130.106754 
L 68.786114 130.739994 
L 70.360288 131.375758 
L 71.942366 132.014005 
L 73.53223 132.654692 
L 75.129759 133.297777 
L 76.734833 133.94322 
L 78.347332 134.590977 
L 79.967132 135.241005 
L 81.594113 135.893262 
L 83.228151 136.547702 
L 84.869124 137.204283 
L 86.516908 137.86296 
L 88.171379 138.523689 
L 89.832413 139.186424 
L 91.499884 139.85112 
L 93.173668 140.517733 
L 94.853639 141.186216 
L 96.539671 141.856523 
L 98.231636 142.528608 
L 99.929409 143.202424 
L 101.632861 143.877924 
L 103.341865 144.555062 
L 105.056293 145.233791 
L 106.776016 145.914062 
L 108.500906 146.595827 
L 110.230832 147.27904 
L 111.965666 147.963651 
L 113.705277 148.649613 
L 115.449536 149.336877 
L 117.198312 150.025393 
L 118.951474 150.715114 
L 120.70889 151.405989 
L 120.347447 152.342859 
L 119.633649 154.219939 
L 118.932028 156.101336 
L 118.242649 157.986885 
L 117.565581 159.87642 
L 116.900894 161.769779 
L 116.248657 163.666797 
L 115.60894 165.567309 
L 114.981816 167.471153 
L 114.367354 169.378166 
L 113.765629 171.288182 
L 113.176713 173.201041 
L 112.600681 175.116578 
L 112.037607 177.034631 
L 111.487568 178.955038 
L 110.950639 180.877636 
L 110.426899 182.802263 
L 109.916424 184.728757 
L 109.419296 186.656956 
L 108.935592 188.586699 
L 108.465395 190.517823 
L 108.008786 192.450167 
L 107.565849 194.38357 
L 107.136666 196.317871 
L 106.721323 198.252908 
L 106.319907 200.188521 
L 102.942741 199.178311 
L 99.555435 198.326457 
L 96.16383 197.633764 
L 92.774239 197.099023 
L 89.393312 196.719189 
L 86.027897 196.489637 
L 82.684885 196.404456 
L 79.371062 196.456757 
L 76.092977 196.638979 
L 72.856822 196.943172 
L 69.668346 197.361237 
L 66.53278 197.885131 
L 63.454801 198.507031 
L 60.438505 199.219452 
L 57.487411 200.015341 
L 54.60447 200.888127 
L 51.792092 201.831761 
L 49.052182 202.84073 
L 46.386183 203.910058 
L 43.795118 205.035295 
L 41.279643 206.212504 
L 38.840092 207.438236 
L 36.476525 208.709512 
L 34.188779 210.023794 
L 31.976506 211.37896 
L 29.839221 212.773285 
L 27.77634 214.205413 
L 25.787216 215.674341 
L 23.871176 217.179394 
L 22.091603 218.665834 
L 21.277301 216.020027 
L 20.508896 213.360526 
L 19.786619 210.68813 
L 19.110685 208.003637 
L 18.481296 205.307852 
L 17.898643 202.601581 
L 17.362897 199.885634 
L 16.874221 197.160825 
L 16.432761 194.42797 
L 16.038648 191.687885 
L 15.692 188.941392 
L 15.392922 186.189313 
L 15.141502 183.432471 
L 14.937817 180.671692 
L 14.781926 177.907803 
L 14.673878 175.14163 
L 14.613703 172.374001 
L 14.601421 169.605746 
L 14.637034 166.837693 
L 14.720532 164.07067 
L 14.851891 161.305506 
L 15.03107 158.543028 
L 15.258016 155.784064 
L 15.532662 153.029439 
L 15.854924 150.279978 
L 16.224707 147.536504 
L 16.6419 144.799839 
L 17.106378 142.070801 
L 17.618001 139.350207 
L 18.176618 136.638873 
L 18.78206 133.937608 
L 19.434146 131.247223 
L 20.132681 128.568523 
L 20.877456 125.902309 
L 21.668248 123.249379 
L 22.504821 120.610528 
L 23.386923 117.986546 
L 24.314291 115.378218 
L 25.286647 112.786324 
L 25.806419 113.007081 
" style="fill:#204a87;stroke:#204a87;stroke-width:5;"/>
    <path clip-path="url(#p91b37f600d)" d="M 121.073352 150.47026 
L 121.8113 148.602308 
L 122.561224 146.739168 
L 123.323059 144.881006 
L 124.096741 143.027988 
L 124.882207 141.180281 
L 125.679392 139.33805 
L 126.488236 137.501463 
L 127.308676 135.670687 
L 128.140651 133.845889 
L 128.9841 132.027238 
L 129.838965 130.214901 
L 130.705185 128.409048 
L 131.582702 126.609846 
L 132.471459 124.817466 
L 133.371399 123.032077 
L 134.282465 121.25385 
L 135.204602 119.482954 
L 136.137755 117.719562 
L 137.081869 115.963844 
L 138.036891 114.215972 
L 139.002769 112.476119 
L 139.97945 110.744459 
L 140.966883 109.021164 
L 141.965019 107.306409 
L 142.973807 105.600368 
L 146.218213 107.026717 
L 149.550562 108.324916 
L 152.963101 109.497349 
L 156.447373 110.548142 
L 159.994397 111.482924 
L 163.594848 112.308524 
L 167.239258 113.032652 
L 170.9182 113.663585 
L 174.622456 114.209865 
L 178.343167 114.68005 
L 182.071946 115.082503 
L 185.800976 115.425232 
L 189.523065 115.715774 
L 193.231696 115.961122 
L 196.921033 116.167687 
L 200.585932 116.341283 
L 204.221921 116.487137 
L 207.825175 116.609912 
L 211.392487 116.713739 
L 214.921226 116.802256 
L 218.409293 116.878653 
L 221.855084 116.94571 
L 225.257437 117.005845 
L 228.615593 117.06115 
L 231.929152 117.113431 
L 235.198032 117.164242 
L 238.422432 117.214918 
L 241.602793 117.266601 
L 244.739767 117.320269 
L 247.834188 117.376758 
L 250.887039 117.436779 
L 253.899432 117.50094 
L 256.872581 117.569758 
L 259.807787 117.643674 
L 262.70641 117.723064 
L 265.569864 117.808249 
L 268.399592 117.899504 
L 271.19706 117.99706 
L 273.963739 118.101118 
L 276.701101 118.211848 
L 279.410603 118.329391 
L 282.09368 118.453866 
L 284.751739 118.585371 
L 287.38615 118.723981 
L 289.998237 118.869748 
L 289.998237 118.869748 
L 290.388818 121.115212 
L 290.748774 123.364563 
L 291.07819 125.617426 
L 291.37715 127.87343 
L 291.64574 130.132206 
L 291.884046 132.393386 
L 292.092154 134.656607 
L 292.270154 136.921508 
L 292.418133 139.187727 
L 292.53618 141.454909 
L 292.624386 143.722697 
L 292.682842 145.990738 
L 292.711639 148.258682 
L 292.710868 150.526177 
L 292.680623 152.792877 
L 292.620997 155.058435 
L 292.532085 157.322508 
L 292.413981 159.584752 
L 292.26678 161.844827 
L 292.09058 164.102391 
L 291.885476 166.357108 
L 291.651567 168.60864 
L 291.388951 170.856652 
L 291.097726 173.100808 
L 290.777993 175.340777 
L 290.429852 177.576225 
L 290.053404 179.806821 
L 289.648751 182.032235 
L 289.215995 184.252139 
L 288.75524 186.466204 
L 288.26659 188.674102 
L 287.75015 190.875508 
L 287.206024 193.070094 
L 286.63432 195.257536 
L 286.035145 197.43751 
L 285.408607 199.609691 
L 284.754814 201.773757 
L 284.073877 203.929384 
L 283.365905 206.076249 
L 282.631009 208.214032 
L 281.869303 210.34241 
L 281.080899 212.461061 
L 281.080899 212.461061 
L 279.493986 211.880102 
L 277.899437 211.295635 
L 276.297368 210.707711 
L 274.687895 210.11638 
L 273.071135 209.52169 
L 271.447207 208.923691 
L 269.816229 208.322433 
L 268.178319 207.717965 
L 266.533597 207.110338 
L 264.882184 206.499601 
L 263.2242 205.885804 
L 261.559766 205.268998 
L 259.889006 204.649231 
L 258.21204 204.026555 
L 256.528992 203.401019 
L 254.839985 202.772674 
L 253.145144 202.14157 
L 251.444593 201.507759 
L 249.738456 200.871289 
L 248.02686 200.232212 
L 246.309931 199.590579 
L 244.587793 198.946441 
L 242.860576 198.299848 
L 241.128404 197.650851 
L 239.391407 196.999502 
L 237.649713 196.34585 
L 235.903449 195.689949 
L 234.152745 195.031849 
L 232.397729 194.3716 
L 230.638533 193.709255 
L 228.875284 193.044866 
L 227.108114 192.378483 
L 225.337153 191.710158 
L 223.562532 191.039943 
L 221.784383 190.367889 
L 220.002837 189.694049 
L 218.218025 189.018474 
L 216.43008 188.341216 
L 214.639134 187.662327 
L 212.84532 186.981859 
L 211.048771 186.299864 
L 209.249619 185.616394 
L 207.447999 184.931501 
L 205.644043 184.245237 
L 203.837885 183.557655 
L 202.02966 182.868807 
L 200.219501 182.178744 
L 198.407542 181.48752 
L 196.593919 180.795186 
L 194.778766 180.101795 
L 192.962217 179.407399 
L 191.144407 178.71205 
L 189.325472 178.015801 
L 187.505546 177.318704 
L 185.684765 176.620812 
L 183.863263 175.922176 
L 182.041177 175.22285 
L 180.218642 174.522885 
L 178.395793 173.822333 
L 176.572765 173.121248 
L 174.749695 172.419681 
L 172.926718 171.717685 
L 171.10397 171.015311 
L 169.281585 170.312612 
L 167.459701 169.609641 
L 165.638452 168.906448 
L 163.817974 168.203087 
L 161.998402 167.49961 
L 160.179872 166.796067 
L 158.36252 166.092512 
L 156.546481 165.388996 
L 154.73189 164.685571 
L 152.918882 163.982288 
L 151.107593 163.279199 
L 149.298158 162.576356 
L 147.490711 161.873811 
L 145.685387 161.171614 
L 143.882321 160.469817 
L 142.081647 159.768471 
L 140.2835 159.067627 
L 138.488014 158.367337 
L 136.695324 157.66765 
L 134.905561 156.968619 
L 133.118862 156.270293 
L 131.335358 155.572723 
L 129.555183 154.875959 
L 127.77847 154.180052 
L 126.005352 153.485051 
L 124.235961 152.791008 
L 122.47043 152.09797 
L 120.70889 151.405989 
L 121.073352 150.47026 
" style="fill:#204a87;stroke:#204a87;stroke-width:5;"/>
    <path clip-path="url(#p91b37f600d)" d="M 280.265912 214.569666 
L 279.424455 216.667903 
L 278.556645 218.75545 
L 277.662599 220.831989 
L 276.742434 222.897198 
L 275.79627 224.950756 
L 274.824226 226.992344 
L 273.826423 229.021641 
L 272.802983 231.038325 
L 271.75403 233.042078 
L 270.679686 235.032576 
L 269.580078 237.009499 
L 268.455331 238.972526 
L 267.305575 240.921335 
L 266.130937 242.855603 
L 264.931547 244.775008 
L 263.707538 246.679226 
L 262.459041 248.567934 
L 261.186191 250.440808 
L 259.889124 252.297522 
L 258.567975 254.137751 
L 257.222885 255.961169 
L 255.853992 257.767448 
L 254.461437 259.556261 
L 253.045364 261.327279 
L 251.605918 263.080172 
L 250.143245 264.814609 
L 248.657491 266.530259 
L 247.148808 268.226789 
L 245.617347 269.903865 
L 244.063262 271.561151 
L 242.486706 273.198312 
L 240.887839 274.815009 
L 239.266818 276.410904 
L 237.623807 277.985656 
L 235.958967 279.538924 
L 234.272466 281.070363 
L 232.56447 282.579629 
L 230.835152 284.066375 
L 229.084683 285.530254 
L 227.313239 286.970914 
L 225.520999 288.388004 
L 223.428864 286.80038 
L 221.326484 285.190595 
L 219.212783 283.557853 
L 217.086644 281.901341 
L 214.946911 280.220227 
L 212.792399 278.513671 
L 210.621893 276.78083 
L 208.434159 275.020867 
L 206.227945 273.23296 
L 204.001985 271.416309 
L 201.755008 269.570154 
L 199.485741 267.693785 
L 197.192913 265.78656 
L 194.875262 263.847922 
L 192.531542 261.877421 
L 190.160528 259.874737 
L 187.761022 257.839707 
L 185.331864 255.772354 
L 182.871931 253.672923 
L 180.380153 251.541917 
L 177.855515 249.380137 
L 175.297064 247.188731 
L 172.70392 244.96924 
L 170.075277 242.723653 
L 167.410412 240.454466 
L 164.708689 238.164737 
L 161.969562 235.858154 
L 159.19258 233.539092 
L 156.377386 231.212673 
L 153.52372 228.884828 
L 150.63142 226.562336 
L 147.700421 224.252865 
L 144.730762 221.964986 
L 141.722588 219.708164 
L 138.676165 217.49272 
L 135.591896 215.329748 
L 132.47035 213.230991 
L 129.312303 211.208662 
L 126.118784 209.275209 
L 122.891144 207.44303 
L 119.631126 205.724146 
L 116.340937 204.129834 
L 113.023328 202.67027 
L 109.681652 201.354175 
L 106.319907 200.188521 
L 106.319907 200.188521 
L 106.721323 198.252908 
L 107.136666 196.317871 
L 107.565849 194.38357 
L 108.008786 192.450167 
L 108.465395 190.517823 
L 108.935592 188.586699 
L 109.419296 186.656956 
L 109.916424 184.728757 
L 110.426899 182.802263 
L 110.950639 180.877636 
L 111.487568 178.955038 
L 112.037607 177.034631 
L 112.600681 175.116578 
L 113.176713 173.201041 
L 113.765629 171.288182 
L 114.367354 169.378166 
L 114.981816 167.471153 
L 115.60894 165.567309 
L 116.248657 163.666797 
L 116.900894 161.769779 
L 117.565581 159.87642 
L 118.242649 157.986885 
L 118.932028 156.101336 
L 119.633649 154.219939 
L 120.347447 152.342859 
L 120.70889 151.405989 
L 122.47043 152.09797 
L 124.235961 152.791008 
L 126.005352 153.485051 
L 127.77847 154.180052 
L 129.555183 154.875959 
L 131.335358 155.572723 
L 133.118862 156.270293 
L 134.905561 156.968619 
L 136.695324 157.66765 
L 138.488014 158.367337 
L 140.2835 159.067627 
L 142.081647 159.768471 
L 143.882321 160.469817 
L 145.685387 161.171614 
L 147.490711 161.873811 
L 149.298158 162.576356 
L 151.107593 163.279199 
L 152.918882 163.982288 
L 154.73189 164.685571 
L 156.546481 165.388996 
L 158.36252 166.092512 
L 160.179872 166.796067 
L 161.998402 167.49961 
L 163.817974 168.203087 
L 165.638452 168.906448 
L 167.459701 169.609641 
L 169.281585 170.312612 
L 171.10397 171.015311 
L 172.926718 171.717685 
L 174.749695 172.419681 
L 176.572765 173.121248 
L 178.395793 173.822333 
L 180.218642 174.522885 
L 182.041177 175.22285 
L 183.863263 175.922176 
L 185.684765 176.620812 
L 187.505546 177.318704 
L 189.325472 178.015801 
L 191.144407 178.71205 
L 192.962217 179.407399 
L 194.778766 180.101795 
L 196.593919 180.795186 
L 198.407542 181.48752 
L 200.219501 182.178744 
L 202.02966 182.868807 
L 203.837885 183.557655 
L 205.644043 184.245237 
L 207.447999 184.931501 
L 209.249619 185.616394 
L 211.048771 186.299864 
L 212.84532 186.981859 
L 214.639134 187.662327 
L 216.43008 188.341216 
L 218.218025 189.018474 
L 220.002837 189.694049 
L 221.784383 190.367889 
L 223.562532 191.039943 
L 225.337153 191.710158 
L 227.108114 192.378483 
L 228.875284 193.044866 
L 230.638533 193.709255 
L 232.397729 194.3716 
L 234.152745 195.031849 
L 235.903449 195.689949 
L 237.649713 196.34585 
L 239.391407 196.999502 
L 241.128404 197.650851 
L 242.860576 198.299848 
L 244.587793 198.946441 
L 246.309931 199.590579 
L 248.02686 200.232212 
L 249.738456 200.871289 
L 251.444593 201.507759 
L 253.145144 202.14157 
L 254.839985 202.772674 
L 256.528992 203.401019 
L 258.21204 204.026555 
L 259.889006 204.649231 
L 261.559766 205.268998 
L 263.2242 205.885804 
L 264.882184 206.499601 
L 266.533597 207.110338 
L 268.178319 207.717965 
L 269.816229 208.322433 
L 271.447207 208.923691 
L 273.071135 209.52169 
L 274.687895 210.11638 
L 276.297368 210.707711 
L 277.899437 211.295635 
L 279.493986 211.880102 
L 281.080899 212.461061 
L 280.265912 214.569666 
" style="fill:#204a87;stroke:#204a87;stroke-width:5;"/>
    <path clip-path="url(#p91b37f600d)" d="M 94.752172 33.536375 
L 95.328373 38.44222 
L 96.223381 43.43924 
L 97.44575 48.525373 
L 99.007146 53.693665 
L 100.921888 58.930908 
L 103.206439 64.216124 
L 105.878778 69.518978 
L 108.957626 74.798341 
L 112.461451 80.001311 
L 114.378114 82.554373 
L 116.407143 85.063239 
L 118.55011 87.518273 
L 120.808238 89.909446 
L 123.182307 92.226538 
L 125.672557 94.459377 
L 128.278587 96.59813 
L 130.999245 98.633618 
L 133.832531 100.557648 
L 136.77551 102.363339 
L 139.824252 104.045403 
L 142.973807 105.600368 
L 146.218213 107.026717 
L 149.550562 108.324916 
L 152.963101 109.497349 
L 156.447373 110.548142 
L 159.994397 111.482924 
L 167.239258 113.032652 
L 174.622456 114.209865 
L 182.071946 115.082503 
L 189.523065 115.715774 
L 200.585932 116.341283 
L 211.392487 116.713739 
L 228.615593 117.06115 
L 259.807787 117.643674 
L 276.701101 118.211848 
L 289.998237 118.869748 
L 302.766108 119.706033 
L 317.569829 120.92978 
L 327.087658 121.828849 
L 328.660205 127.089108 
L 330.051351 132.400224 
L 331.259457 137.755941 
L 332.283102 143.149955 
L 333.121079 148.575913 
L 333.772403 154.027427 
L 334.236306 159.498078 
L 334.512242 164.981425 
L 334.599886 170.47101 
L 334.499135 175.960371 
L 334.210108 181.443043 
L 333.733144 186.912571 
L 333.068806 192.362515 
L 332.217876 197.786457 
L 331.181355 203.178011 
L 329.960465 208.530829 
L 328.556642 213.838607 
L 326.97154 219.095097 
L 325.207026 224.294108 
L 323.265175 229.429519 
L 321.148277 234.495283 
L 318.858822 239.485436 
L 316.399506 244.394102 
L 313.773226 249.2155 
L 310.983073 253.943955 
L 308.032334 258.573897 
L 304.924482 263.099876 
L 301.663177 267.516562 
L 298.252259 271.818756 
L 294.695744 276.00139 
L 290.997819 280.059541 
L 287.16284 283.98843 
L 283.195322 287.78343 
L 279.099936 291.440074 
L 274.881504 294.954055 
L 270.544994 298.321236 
L 266.095511 301.537653 
L 261.538296 304.599517 
L 256.878713 307.503225 
L 254.512244 308.894694 
L 241.999087 300.377505 
L 233.806772 294.531887 
L 225.520999 288.388004 
L 217.086644 281.901341 
L 206.227945 273.23296 
L 194.875262 263.847922 
L 180.380153 251.541917 
L 159.19258 233.539092 
L 150.63142 226.562336 
L 144.730762 221.964986 
L 138.676165 217.49272 
L 132.47035 213.230991 
L 126.118784 209.275209 
L 122.891144 207.44303 
L 119.631126 205.724146 
L 116.340937 204.129834 
L 113.023328 202.67027 
L 109.681652 201.354175 
L 106.319907 200.188521 
L 102.942741 199.178311 
L 99.555435 198.326457 
L 96.16383 197.633764 
L 92.774239 197.099023 
L 89.393312 196.719189 
L 86.027897 196.489637 
L 82.684885 196.404456 
L 79.371062 196.456757 
L 76.092977 196.638979 
L 72.856822 196.943172 
L 69.668346 197.361237 
L 63.454801 198.507031 
L 57.487411 200.015341 
L 51.792092 201.831761 
L 46.386183 203.910058 
L 41.279643 206.212504 
L 36.476525 208.709512 
L 31.976506 211.37896 
L 27.77634 214.205413 
L 23.871176 217.179394 
L 22.091603 218.665834 
L 20.522316 213.408498 
L 19.134204 208.100448 
L 17.928899 202.747926 
L 16.907819 197.357226 
L 16.072165 191.934687 
L 15.422918 186.486684 
L 14.960843 181.019625 
L 14.686483 175.539937 
L 14.60016 170.054065 
L 14.701975 164.568457 
L 14.99181 159.089567 
L 15.469324 153.623834 
L 16.133954 148.177687 
L 16.984919 142.757529 
L 18.02122 137.369735 
L 19.241636 132.020638 
L 20.644734 126.716529 
L 22.228862 121.463646 
L 23.99216 116.268164 
L 25.932552 111.136192 
L 28.047758 106.073767 
L 30.33529 101.086839 
L 32.792459 96.181273 
L 35.416375 91.362838 
L 38.203952 86.637199 
L 41.151913 82.009914 
L 44.256792 77.486422 
L 47.514938 73.072043 
L 50.922518 68.771968 
L 54.475528 64.591253 
L 58.169788 60.534815 
L 62.000954 56.607422 
L 65.964523 52.813694 
L 70.055832 49.15809 
L 74.270072 45.64491 
L 78.602287 42.278285 
L 83.047382 39.062173 
L 87.600132 36.000356 
L 92.255181 33.096434 
L 94.619363 31.704758 
L 94.752172 33.536375 
L 94.752172 33.536375 
" style="fill:none;stroke:#000000;stroke-width:5;"/>
   </g>
  </g>
 </g>
 <defs>
  <clipPath id="p91b37f600d">
   <rect height="326.16" width="334.8" x="7.2" y="7.2"/>
  </clipPath>
 </defs>
</svg>
